<svg
  width="1026"
  height="1538"
  viewBox="0 0 1026 1538"
  xmlns="http://www.w3.org/2000/svg"
>

<path
  d="M409.921 810.459L413.961 834.079L254.07 902.916L282.354 1004.15L437.628 929.91L524.789 1272.07H550.764L572.121 1396.24L561.731 1536.62L661.592 1525.82L674.29 1334.83L589.438 1131.02L528.829 924.511L650.624 860.399L699.688 751.07L685.258 716.652L736.631 695.056L753.371 653.889L668.518 517.566L601.56 482.473L622.34 420.385L613.104 375.169L589.438 356.272H561.731L525.943 401.489V439.281L534.602 461.552L443.4 504.743L340.076 614.747L360.279 702.48L373.555 780.764L409.921 810.459ZM409.921 810.459L430.701 755.794V751.07M430.701 751.07L429.546 622.845L403.571 632.293L401.262 702.48L413.961 730.824L430.701 751.07Z"
  fill="rgba(255,255,255,0.001)"
  stroke="none"
  pointer-events="all"
  data-id="marcelo"
  fill-rule="evenodd"
/>

<path
  d="M828.987 908.989L837.646 967.703L728.55 999.422L721.623 962.304L769.533 917.088L774.728 726.775L747.021 517.566L774.728 374.494L721.623 358.297L727.973 282.037L752.216 215.225L780.5 153.137L805.898 48.5325L820.906 22.2126L852.076 0.616821L895.946 33.6854L932.888 142.339L971.562 180.132L990.033 345.474L943.855 394.065L956.554 539.836V671.436L970.408 708.554L1003.89 880.645V975.801L1024.67 1088.5L946.741 1079.73L951.937 981.875L940.392 880.645L852.076 588.427L832.451 708.554L828.987 908.989Z"
  fill="rgba(255,255,255,0.001)"
  stroke="none"
  pointer-events="all"
  data-id="victor"
  fill-rule="evenodd"
/>

<path
  d="M495.35 125.467L473.993 118.719L450.327 130.866L438.205 165.285L431.855 238.17L412.807 243.569L386.254 259.766L360.856 356.272L368.36 412.961L407.612 398.789L421.465 522.965L432.433 510.142L446.286 500.694L531.715 459.527L523.634 439.956V399.464L542.683 375.169L561.731 352.223H589.438L615.413 375.169L624.649 421.06L605.023 480.448L639.08 499.344L648.315 489.221L660.437 432.532L670.827 389.341L663.9 330.627L628.69 267.865L596.942 211.176L532.293 203.077L523.634 165.285L495.35 125.467Z"
  fill="rgba(255,255,255,0.001)"
  stroke="none"
  pointer-events="all"
  data-id="drums"
  fill-rule="evenodd"
/>

<path
  d="M208.469 25.5869L178.453 13.4393L162.868 18.1633L136.893 42.4586L142.088 80.9261L131.697 86.9999L145.551 117.369L154.209 155.162L111.495 170.009L88.4055 177.432L75.7065 233.446L73.9748 281.362L108.031 312.406L106.299 477.074L98.7955 493.271L79.7471 672.111L22.6016 907.64V1004.15L0.667023 1083.11L69.9342 1079.73L84.9421 1015.62L99.3728 923.162L134.584 879.97L122.462 856.35L142.088 822.606L146.705 772.666L217.127 583.028L265.614 780.09V818.557L281.776 884.694L349.889 857.699L347.003 840.153L318.719 783.464L316.41 718.002L331.995 680.884L285.817 329.952H303.711L326.223 317.13V269.889L291.589 201.053L272.541 183.506L217.127 162.585L228.094 86.9999L221.745 80.9261L224.631 56.6308L208.469 25.5869Z"
  fill="rgba(255,255,255,0.001)"
  stroke="none"
  pointer-events="all"
  data-id="bass"
  fill-rule="evenodd"
/>

</svg>